<?xml version="1.0" encoding="utf-8" standalone="no"?>
<!DOCTYPE svg PUBLIC "-//W3C//DTD SVG 1.1//EN"
  "http://www.w3.org/Graphics/SVG/1.1/DTD/svg11.dtd">
<svg xmlns:xlink="http://www.w3.org/1999/xlink" width="504pt" height="288pt" viewBox="0 0 504 288" xmlns="http://www.w3.org/2000/svg" version="1.1">
 <metadata>
  <rdf:RDF xmlns:dc="http://purl.org/dc/elements/1.1/" xmlns:cc="http://creativecommons.org/ns#" xmlns:rdf="http://www.w3.org/1999/02/22-rdf-syntax-ns#">
   <cc:Work>
    <dc:type rdf:resource="http://purl.org/dc/dcmitype/StillImage"/>
    <dc:date>2023-12-03T20:08:47.305239</dc:date>
    <dc:format>image/svg+xml</dc:format>
    <dc:creator>
     <cc:Agent>
      <dc:title>Matplotlib v3.7.2, https://matplotlib.org/</dc:title>
     </cc:Agent>
    </dc:creator>
   </cc:Work>
  </rdf:RDF>
 </metadata>
 <defs>
  <style type="text/css">*{stroke-linejoin: round; stroke-linecap: butt}</style>
 </defs>
 <g id="figure_1">
  <g id="patch_1">
   <path d="M 0 288 
L 504 288 
L 504 0 
L 0 0 
z
" style="fill: #ffffff"/>
  </g>
  <g id="axes_1">
   <g id="patch_2">
    <path d="M 55.78 242.03 
L 487.494953 242.03 
L 487.494953 31.92 
L 55.78 31.92 
z
" style="fill: #ffffff"/>
   </g>
   <g id="matplotlib.axis_1">
    <g id="xtick_1">
     <g id="line2d_1">
      <path d="M 75.403407 242.03 
L 75.403407 31.92 
" clip-path="url(#p2dc9211862)" style="fill: none; stroke: #b0b0b0; stroke-width: 0.8; stroke-linecap: square"/>
     </g>
     <g id="line2d_2">
      <defs>
       <path id="m83090a4bc7" d="M 0 1.75 
L 0 -1.75 
" style="stroke: #000000; stroke-width: 0.8"/>
      </defs>
      <g>
       <use xlink:href="#m83090a4bc7" x="75.403407" y="242.03" style="stroke: #000000; stroke-width: 0.8"/>
      </g>
     </g>
     <g id="text_1">
      <!-- 0 -->
      <g transform="translate(71.585907 256.398125) scale(0.12 -0.12)">
       <defs>
        <path id="DejaVuSans-30" d="M 2034 4250 
Q 1547 4250 1301 3770 
Q 1056 3291 1056 2328 
Q 1056 1369 1301 889 
Q 1547 409 2034 409 
Q 2525 409 2770 889 
Q 3016 1369 3016 2328 
Q 3016 3291 2770 3770 
Q 2525 4250 2034 4250 
z
M 2034 4750 
Q 2819 4750 3233 4129 
Q 3647 3509 3647 2328 
Q 3647 1150 3233 529 
Q 2819 -91 2034 -91 
Q 1250 -91 836 529 
Q 422 1150 422 2328 
Q 422 3509 836 4129 
Q 1250 4750 2034 4750 
z
" transform="scale(0.015625)"/>
       </defs>
       <use xlink:href="#DejaVuSans-30"/>
      </g>
     </g>
    </g>
    <g id="xtick_2">
     <g id="line2d_3">
      <path d="M 133.980741 242.03 
L 133.980741 31.92 
" clip-path="url(#p2dc9211862)" style="fill: none; stroke: #b0b0b0; stroke-width: 0.8; stroke-linecap: square"/>
     </g>
     <g id="line2d_4">
      <g>
       <use xlink:href="#m83090a4bc7" x="133.980741" y="242.03" style="stroke: #000000; stroke-width: 0.8"/>
      </g>
     </g>
     <g id="text_2">
      <!-- 10 -->
      <g transform="translate(126.345741 256.398125) scale(0.12 -0.12)">
       <defs>
        <path id="DejaVuSans-31" d="M 794 531 
L 1825 531 
L 1825 4091 
L 703 3866 
L 703 4441 
L 1819 4666 
L 2450 4666 
L 2450 531 
L 3481 531 
L 3481 0 
L 794 0 
L 794 531 
z
" transform="scale(0.015625)"/>
       </defs>
       <use xlink:href="#DejaVuSans-31"/>
       <use xlink:href="#DejaVuSans-30" x="63.623047"/>
      </g>
     </g>
    </g>
    <g id="xtick_3">
     <g id="line2d_5">
      <path d="M 192.558075 242.03 
L 192.558075 31.92 
" clip-path="url(#p2dc9211862)" style="fill: none; stroke: #b0b0b0; stroke-width: 0.8; stroke-linecap: square"/>
     </g>
     <g id="line2d_6">
      <g>
       <use xlink:href="#m83090a4bc7" x="192.558075" y="242.03" style="stroke: #000000; stroke-width: 0.8"/>
      </g>
     </g>
     <g id="text_3">
      <!-- 20 -->
      <g transform="translate(184.923075 256.398125) scale(0.12 -0.12)">
       <defs>
        <path id="DejaVuSans-32" d="M 1228 531 
L 3431 531 
L 3431 0 
L 469 0 
L 469 531 
Q 828 903 1448 1529 
Q 2069 2156 2228 2338 
Q 2531 2678 2651 2914 
Q 2772 3150 2772 3378 
Q 2772 3750 2511 3984 
Q 2250 4219 1831 4219 
Q 1534 4219 1204 4116 
Q 875 4013 500 3803 
L 500 4441 
Q 881 4594 1212 4672 
Q 1544 4750 1819 4750 
Q 2544 4750 2975 4387 
Q 3406 4025 3406 3419 
Q 3406 3131 3298 2873 
Q 3191 2616 2906 2266 
Q 2828 2175 2409 1742 
Q 1991 1309 1228 531 
z
" transform="scale(0.015625)"/>
       </defs>
       <use xlink:href="#DejaVuSans-32"/>
       <use xlink:href="#DejaVuSans-30" x="63.623047"/>
      </g>
     </g>
    </g>
    <g id="xtick_4">
     <g id="line2d_7">
      <path d="M 251.135409 242.03 
L 251.135409 31.92 
" clip-path="url(#p2dc9211862)" style="fill: none; stroke: #b0b0b0; stroke-width: 0.8; stroke-linecap: square"/>
     </g>
     <g id="line2d_8">
      <g>
       <use xlink:href="#m83090a4bc7" x="251.135409" y="242.03" style="stroke: #000000; stroke-width: 0.8"/>
      </g>
     </g>
     <g id="text_4">
      <!-- 30 -->
      <g transform="translate(243.500409 256.398125) scale(0.12 -0.12)">
       <defs>
        <path id="DejaVuSans-33" d="M 2597 2516 
Q 3050 2419 3304 2112 
Q 3559 1806 3559 1356 
Q 3559 666 3084 287 
Q 2609 -91 1734 -91 
Q 1441 -91 1130 -33 
Q 819 25 488 141 
L 488 750 
Q 750 597 1062 519 
Q 1375 441 1716 441 
Q 2309 441 2620 675 
Q 2931 909 2931 1356 
Q 2931 1769 2642 2001 
Q 2353 2234 1838 2234 
L 1294 2234 
L 1294 2753 
L 1863 2753 
Q 2328 2753 2575 2939 
Q 2822 3125 2822 3475 
Q 2822 3834 2567 4026 
Q 2313 4219 1838 4219 
Q 1578 4219 1281 4162 
Q 984 4106 628 3988 
L 628 4550 
Q 988 4650 1302 4700 
Q 1616 4750 1894 4750 
Q 2613 4750 3031 4423 
Q 3450 4097 3450 3541 
Q 3450 3153 3228 2886 
Q 3006 2619 2597 2516 
z
" transform="scale(0.015625)"/>
       </defs>
       <use xlink:href="#DejaVuSans-33"/>
       <use xlink:href="#DejaVuSans-30" x="63.623047"/>
      </g>
     </g>
    </g>
    <g id="xtick_5">
     <g id="line2d_9">
      <path d="M 309.712743 242.03 
L 309.712743 31.92 
" clip-path="url(#p2dc9211862)" style="fill: none; stroke: #b0b0b0; stroke-width: 0.8; stroke-linecap: square"/>
     </g>
     <g id="line2d_10">
      <g>
       <use xlink:href="#m83090a4bc7" x="309.712743" y="242.03" style="stroke: #000000; stroke-width: 0.8"/>
      </g>
     </g>
     <g id="text_5">
      <!-- 40 -->
      <g transform="translate(302.077743 256.398125) scale(0.12 -0.12)">
       <defs>
        <path id="DejaVuSans-34" d="M 2419 4116 
L 825 1625 
L 2419 1625 
L 2419 4116 
z
M 2253 4666 
L 3047 4666 
L 3047 1625 
L 3713 1625 
L 3713 1100 
L 3047 1100 
L 3047 0 
L 2419 0 
L 2419 1100 
L 313 1100 
L 313 1709 
L 2253 4666 
z
" transform="scale(0.015625)"/>
       </defs>
       <use xlink:href="#DejaVuSans-34"/>
       <use xlink:href="#DejaVuSans-30" x="63.623047"/>
      </g>
     </g>
    </g>
    <g id="xtick_6">
     <g id="line2d_11">
      <path d="M 368.290078 242.03 
L 368.290078 31.92 
" clip-path="url(#p2dc9211862)" style="fill: none; stroke: #b0b0b0; stroke-width: 0.8; stroke-linecap: square"/>
     </g>
     <g id="line2d_12">
      <g>
       <use xlink:href="#m83090a4bc7" x="368.290078" y="242.03" style="stroke: #000000; stroke-width: 0.8"/>
      </g>
     </g>
     <g id="text_6">
      <!-- 50 -->
      <g transform="translate(360.655078 256.398125) scale(0.12 -0.12)">
       <defs>
        <path id="DejaVuSans-35" d="M 691 4666 
L 3169 4666 
L 3169 4134 
L 1269 4134 
L 1269 2991 
Q 1406 3038 1543 3061 
Q 1681 3084 1819 3084 
Q 2600 3084 3056 2656 
Q 3513 2228 3513 1497 
Q 3513 744 3044 326 
Q 2575 -91 1722 -91 
Q 1428 -91 1123 -41 
Q 819 9 494 109 
L 494 744 
Q 775 591 1075 516 
Q 1375 441 1709 441 
Q 2250 441 2565 725 
Q 2881 1009 2881 1497 
Q 2881 1984 2565 2268 
Q 2250 2553 1709 2553 
Q 1456 2553 1204 2497 
Q 953 2441 691 2322 
L 691 4666 
z
" transform="scale(0.015625)"/>
       </defs>
       <use xlink:href="#DejaVuSans-35"/>
       <use xlink:href="#DejaVuSans-30" x="63.623047"/>
      </g>
     </g>
    </g>
    <g id="xtick_7">
     <g id="line2d_13">
      <path d="M 426.867412 242.03 
L 426.867412 31.92 
" clip-path="url(#p2dc9211862)" style="fill: none; stroke: #b0b0b0; stroke-width: 0.8; stroke-linecap: square"/>
     </g>
     <g id="line2d_14">
      <g>
       <use xlink:href="#m83090a4bc7" x="426.867412" y="242.03" style="stroke: #000000; stroke-width: 0.8"/>
      </g>
     </g>
     <g id="text_7">
      <!-- 60 -->
      <g transform="translate(419.232412 256.398125) scale(0.12 -0.12)">
       <defs>
        <path id="DejaVuSans-36" d="M 2113 2584 
Q 1688 2584 1439 2293 
Q 1191 2003 1191 1497 
Q 1191 994 1439 701 
Q 1688 409 2113 409 
Q 2538 409 2786 701 
Q 3034 994 3034 1497 
Q 3034 2003 2786 2293 
Q 2538 2584 2113 2584 
z
M 3366 4563 
L 3366 3988 
Q 3128 4100 2886 4159 
Q 2644 4219 2406 4219 
Q 1781 4219 1451 3797 
Q 1122 3375 1075 2522 
Q 1259 2794 1537 2939 
Q 1816 3084 2150 3084 
Q 2853 3084 3261 2657 
Q 3669 2231 3669 1497 
Q 3669 778 3244 343 
Q 2819 -91 2113 -91 
Q 1303 -91 875 529 
Q 447 1150 447 2328 
Q 447 3434 972 4092 
Q 1497 4750 2381 4750 
Q 2619 4750 2861 4703 
Q 3103 4656 3366 4563 
z
" transform="scale(0.015625)"/>
       </defs>
       <use xlink:href="#DejaVuSans-36"/>
       <use xlink:href="#DejaVuSans-30" x="63.623047"/>
      </g>
     </g>
    </g>
    <g id="xtick_8">
     <g id="line2d_15">
      <path d="M 485.444746 242.03 
L 485.444746 31.92 
" clip-path="url(#p2dc9211862)" style="fill: none; stroke: #b0b0b0; stroke-width: 0.8; stroke-linecap: square"/>
     </g>
     <g id="line2d_16">
      <g>
       <use xlink:href="#m83090a4bc7" x="485.444746" y="242.03" style="stroke: #000000; stroke-width: 0.8"/>
      </g>
     </g>
     <g id="text_8">
      <!-- 70 -->
      <g transform="translate(477.809746 256.398125) scale(0.12 -0.12)">
       <defs>
        <path id="DejaVuSans-37" d="M 525 4666 
L 3525 4666 
L 3525 4397 
L 1831 0 
L 1172 0 
L 2766 4134 
L 525 4134 
L 525 4666 
z
" transform="scale(0.015625)"/>
       </defs>
       <use xlink:href="#DejaVuSans-37"/>
       <use xlink:href="#DejaVuSans-30" x="63.623047"/>
      </g>
     </g>
    </g>
    <g id="text_9">
     <!-- Edges -->
     <g transform="translate(253.410601 272.011875) scale(0.12 -0.12)">
      <defs>
       <path id="DejaVuSans-45" d="M 628 4666 
L 3578 4666 
L 3578 4134 
L 1259 4134 
L 1259 2753 
L 3481 2753 
L 3481 2222 
L 1259 2222 
L 1259 531 
L 3634 531 
L 3634 0 
L 628 0 
L 628 4666 
z
" transform="scale(0.015625)"/>
       <path id="DejaVuSans-64" d="M 2906 2969 
L 2906 4863 
L 3481 4863 
L 3481 0 
L 2906 0 
L 2906 525 
Q 2725 213 2448 61 
Q 2172 -91 1784 -91 
Q 1150 -91 751 415 
Q 353 922 353 1747 
Q 353 2572 751 3078 
Q 1150 3584 1784 3584 
Q 2172 3584 2448 3432 
Q 2725 3281 2906 2969 
z
M 947 1747 
Q 947 1113 1208 752 
Q 1469 391 1925 391 
Q 2381 391 2643 752 
Q 2906 1113 2906 1747 
Q 2906 2381 2643 2742 
Q 2381 3103 1925 3103 
Q 1469 3103 1208 2742 
Q 947 2381 947 1747 
z
" transform="scale(0.015625)"/>
       <path id="DejaVuSans-67" d="M 2906 1791 
Q 2906 2416 2648 2759 
Q 2391 3103 1925 3103 
Q 1463 3103 1205 2759 
Q 947 2416 947 1791 
Q 947 1169 1205 825 
Q 1463 481 1925 481 
Q 2391 481 2648 825 
Q 2906 1169 2906 1791 
z
M 3481 434 
Q 3481 -459 3084 -895 
Q 2688 -1331 1869 -1331 
Q 1566 -1331 1297 -1286 
Q 1028 -1241 775 -1147 
L 775 -588 
Q 1028 -725 1275 -790 
Q 1522 -856 1778 -856 
Q 2344 -856 2625 -561 
Q 2906 -266 2906 331 
L 2906 616 
Q 2728 306 2450 153 
Q 2172 0 1784 0 
Q 1141 0 747 490 
Q 353 981 353 1791 
Q 353 2603 747 3093 
Q 1141 3584 1784 3584 
Q 2172 3584 2450 3431 
Q 2728 3278 2906 2969 
L 2906 3500 
L 3481 3500 
L 3481 434 
z
" transform="scale(0.015625)"/>
       <path id="DejaVuSans-65" d="M 3597 1894 
L 3597 1613 
L 953 1613 
Q 991 1019 1311 708 
Q 1631 397 2203 397 
Q 2534 397 2845 478 
Q 3156 559 3463 722 
L 3463 178 
Q 3153 47 2828 -22 
Q 2503 -91 2169 -91 
Q 1331 -91 842 396 
Q 353 884 353 1716 
Q 353 2575 817 3079 
Q 1281 3584 2069 3584 
Q 2775 3584 3186 3129 
Q 3597 2675 3597 1894 
z
M 3022 2063 
Q 3016 2534 2758 2815 
Q 2500 3097 2075 3097 
Q 1594 3097 1305 2825 
Q 1016 2553 972 2059 
L 3022 2063 
z
" transform="scale(0.015625)"/>
       <path id="DejaVuSans-73" d="M 2834 3397 
L 2834 2853 
Q 2591 2978 2328 3040 
Q 2066 3103 1784 3103 
Q 1356 3103 1142 2972 
Q 928 2841 928 2578 
Q 928 2378 1081 2264 
Q 1234 2150 1697 2047 
L 1894 2003 
Q 2506 1872 2764 1633 
Q 3022 1394 3022 966 
Q 3022 478 2636 193 
Q 2250 -91 1575 -91 
Q 1294 -91 989 -36 
Q 684 19 347 128 
L 347 722 
Q 666 556 975 473 
Q 1284 391 1588 391 
Q 1994 391 2212 530 
Q 2431 669 2431 922 
Q 2431 1156 2273 1281 
Q 2116 1406 1581 1522 
L 1381 1569 
Q 847 1681 609 1914 
Q 372 2147 372 2553 
Q 372 3047 722 3315 
Q 1072 3584 1716 3584 
Q 2034 3584 2315 3537 
Q 2597 3491 2834 3397 
z
" transform="scale(0.015625)"/>
      </defs>
      <use xlink:href="#DejaVuSans-45"/>
      <use xlink:href="#DejaVuSans-64" x="63.183594"/>
      <use xlink:href="#DejaVuSans-67" x="126.660156"/>
      <use xlink:href="#DejaVuSans-65" x="190.136719"/>
      <use xlink:href="#DejaVuSans-73" x="251.660156"/>
     </g>
    </g>
   </g>
   <g id="matplotlib.axis_2">
    <g id="ytick_1">
     <g id="line2d_17">
      <path d="M 55.78 232.479545 
L 487.494953 232.479545 
" clip-path="url(#p2dc9211862)" style="fill: none; stroke: #b0b0b0; stroke-width: 0.8; stroke-linecap: square"/>
     </g>
     <g id="line2d_18">
      <defs>
       <path id="mee4726de86" d="M 1.75 0 
L -1.75 -0 
" style="stroke: #000000; stroke-width: 0.8"/>
      </defs>
      <g>
       <use xlink:href="#mee4726de86" x="55.78" y="232.479545" style="stroke: #000000; stroke-width: 0.8"/>
      </g>
     </g>
     <g id="text_10">
      <!-- 0 -->
      <g transform="translate(42.895 237.038608) scale(0.12 -0.12)">
       <use xlink:href="#DejaVuSans-30"/>
      </g>
     </g>
    </g>
    <g id="ytick_2">
     <g id="line2d_19">
      <path d="M 55.78 191.000916 
L 487.494953 191.000916 
" clip-path="url(#p2dc9211862)" style="fill: none; stroke: #b0b0b0; stroke-width: 0.8; stroke-linecap: square"/>
     </g>
     <g id="line2d_20">
      <g>
       <use xlink:href="#mee4726de86" x="55.78" y="191.000916" style="stroke: #000000; stroke-width: 0.8"/>
      </g>
     </g>
     <g id="text_11">
      <!-- 200 -->
      <g transform="translate(27.625 195.559978) scale(0.12 -0.12)">
       <use xlink:href="#DejaVuSans-32"/>
       <use xlink:href="#DejaVuSans-30" x="63.623047"/>
       <use xlink:href="#DejaVuSans-30" x="127.246094"/>
      </g>
     </g>
    </g>
    <g id="ytick_3">
     <g id="line2d_21">
      <path d="M 55.78 149.522286 
L 487.494953 149.522286 
" clip-path="url(#p2dc9211862)" style="fill: none; stroke: #b0b0b0; stroke-width: 0.8; stroke-linecap: square"/>
     </g>
     <g id="line2d_22">
      <g>
       <use xlink:href="#mee4726de86" x="55.78" y="149.522286" style="stroke: #000000; stroke-width: 0.8"/>
      </g>
     </g>
     <g id="text_12">
      <!-- 400 -->
      <g transform="translate(27.625 154.081348) scale(0.12 -0.12)">
       <use xlink:href="#DejaVuSans-34"/>
       <use xlink:href="#DejaVuSans-30" x="63.623047"/>
       <use xlink:href="#DejaVuSans-30" x="127.246094"/>
      </g>
     </g>
    </g>
    <g id="ytick_4">
     <g id="line2d_23">
      <path d="M 55.78 108.043656 
L 487.494953 108.043656 
" clip-path="url(#p2dc9211862)" style="fill: none; stroke: #b0b0b0; stroke-width: 0.8; stroke-linecap: square"/>
     </g>
     <g id="line2d_24">
      <g>
       <use xlink:href="#mee4726de86" x="55.78" y="108.043656" style="stroke: #000000; stroke-width: 0.8"/>
      </g>
     </g>
     <g id="text_13">
      <!-- 600 -->
      <g transform="translate(27.625 112.602718) scale(0.12 -0.12)">
       <use xlink:href="#DejaVuSans-36"/>
       <use xlink:href="#DejaVuSans-30" x="63.623047"/>
       <use xlink:href="#DejaVuSans-30" x="127.246094"/>
      </g>
     </g>
    </g>
    <g id="ytick_5">
     <g id="line2d_25">
      <path d="M 55.78 66.565026 
L 487.494953 66.565026 
" clip-path="url(#p2dc9211862)" style="fill: none; stroke: #b0b0b0; stroke-width: 0.8; stroke-linecap: square"/>
     </g>
     <g id="line2d_26">
      <g>
       <use xlink:href="#mee4726de86" x="55.78" y="66.565026" style="stroke: #000000; stroke-width: 0.8"/>
      </g>
     </g>
     <g id="text_14">
      <!-- 800 -->
      <g transform="translate(27.625 71.124088) scale(0.12 -0.12)">
       <defs>
        <path id="DejaVuSans-38" d="M 2034 2216 
Q 1584 2216 1326 1975 
Q 1069 1734 1069 1313 
Q 1069 891 1326 650 
Q 1584 409 2034 409 
Q 2484 409 2743 651 
Q 3003 894 3003 1313 
Q 3003 1734 2745 1975 
Q 2488 2216 2034 2216 
z
M 1403 2484 
Q 997 2584 770 2862 
Q 544 3141 544 3541 
Q 544 4100 942 4425 
Q 1341 4750 2034 4750 
Q 2731 4750 3128 4425 
Q 3525 4100 3525 3541 
Q 3525 3141 3298 2862 
Q 3072 2584 2669 2484 
Q 3125 2378 3379 2068 
Q 3634 1759 3634 1313 
Q 3634 634 3220 271 
Q 2806 -91 2034 -91 
Q 1263 -91 848 271 
Q 434 634 434 1313 
Q 434 1759 690 2068 
Q 947 2378 1403 2484 
z
M 1172 3481 
Q 1172 3119 1398 2916 
Q 1625 2713 2034 2713 
Q 2441 2713 2670 2916 
Q 2900 3119 2900 3481 
Q 2900 3844 2670 4047 
Q 2441 4250 2034 4250 
Q 1625 4250 1398 4047 
Q 1172 3844 1172 3481 
z
" transform="scale(0.015625)"/>
       </defs>
       <use xlink:href="#DejaVuSans-38"/>
       <use xlink:href="#DejaVuSans-30" x="63.623047"/>
       <use xlink:href="#DejaVuSans-30" x="127.246094"/>
      </g>
     </g>
    </g>
    <g id="text_15">
     <!-- Pixel -->
     <g transform="translate(21.129375 150.847187) rotate(-90) scale(0.12 -0.12)">
      <defs>
       <path id="DejaVuSans-50" d="M 1259 4147 
L 1259 2394 
L 2053 2394 
Q 2494 2394 2734 2622 
Q 2975 2850 2975 3272 
Q 2975 3691 2734 3919 
Q 2494 4147 2053 4147 
L 1259 4147 
z
M 628 4666 
L 2053 4666 
Q 2838 4666 3239 4311 
Q 3641 3956 3641 3272 
Q 3641 2581 3239 2228 
Q 2838 1875 2053 1875 
L 1259 1875 
L 1259 0 
L 628 0 
L 628 4666 
z
" transform="scale(0.015625)"/>
       <path id="DejaVuSans-69" d="M 603 3500 
L 1178 3500 
L 1178 0 
L 603 0 
L 603 3500 
z
M 603 4863 
L 1178 4863 
L 1178 4134 
L 603 4134 
L 603 4863 
z
" transform="scale(0.015625)"/>
       <path id="DejaVuSans-78" d="M 3513 3500 
L 2247 1797 
L 3578 0 
L 2900 0 
L 1881 1375 
L 863 0 
L 184 0 
L 1544 1831 
L 300 3500 
L 978 3500 
L 1906 2253 
L 2834 3500 
L 3513 3500 
z
" transform="scale(0.015625)"/>
       <path id="DejaVuSans-6c" d="M 603 4863 
L 1178 4863 
L 1178 0 
L 603 0 
L 603 4863 
z
" transform="scale(0.015625)"/>
      </defs>
      <use xlink:href="#DejaVuSans-50"/>
      <use xlink:href="#DejaVuSans-69" x="58.052734"/>
      <use xlink:href="#DejaVuSans-78" x="85.835938"/>
      <use xlink:href="#DejaVuSans-65" x="141.890625"/>
      <use xlink:href="#DejaVuSans-6c" x="203.414062"/>
     </g>
    </g>
   </g>
   <g id="LineCollection_1">
    <path d="M 75.403407 232.479545 
L 75.403407 228.746469 
" clip-path="url(#p2dc9211862)" style="fill: none; stroke: #008080; stroke-width: 1.5"/>
    <path d="M 81.26114 232.479545 
L 81.26114 225.842965 
" clip-path="url(#p2dc9211862)" style="fill: none; stroke: #008080; stroke-width: 1.5"/>
    <path d="M 87.118874 232.479545 
L 87.118874 219.413777 
" clip-path="url(#p2dc9211862)" style="fill: none; stroke: #008080; stroke-width: 1.5"/>
    <path d="M 92.976607 232.479545 
L 92.976607 216.510273 
" clip-path="url(#p2dc9211862)" style="fill: none; stroke: #008080; stroke-width: 1.5"/>
    <path d="M 98.834341 232.479545 
L 98.834341 212.984589 
" clip-path="url(#p2dc9211862)" style="fill: none; stroke: #008080; stroke-width: 1.5"/>
    <path d="M 104.692074 232.479545 
L 104.692074 211.325444 
" clip-path="url(#p2dc9211862)" style="fill: none; stroke: #008080; stroke-width: 1.5"/>
    <path d="M 110.549807 232.479545 
L 110.549807 209.666299 
" clip-path="url(#p2dc9211862)" style="fill: none; stroke: #008080; stroke-width: 1.5"/>
    <path d="M 116.407541 232.479545 
L 116.407541 208.007154 
" clip-path="url(#p2dc9211862)" style="fill: none; stroke: #008080; stroke-width: 1.5"/>
    <path d="M 122.265274 232.479545 
L 122.265274 206.555402 
" clip-path="url(#p2dc9211862)" style="fill: none; stroke: #008080; stroke-width: 1.5"/>
    <path d="M 128.123008 232.479545 
L 128.123008 203.029718 
" clip-path="url(#p2dc9211862)" style="fill: none; stroke: #008080; stroke-width: 1.5"/>
    <path d="M 133.980741 232.479545 
L 133.980741 201.785359 
" clip-path="url(#p2dc9211862)" style="fill: none; stroke: #008080; stroke-width: 1.5"/>
    <path d="M 139.838474 232.479545 
L 139.838474 196.393137 
" clip-path="url(#p2dc9211862)" style="fill: none; stroke: #008080; stroke-width: 1.5"/>
    <path d="M 145.696208 232.479545 
L 145.696208 195.148779 
" clip-path="url(#p2dc9211862)" style="fill: none; stroke: #008080; stroke-width: 1.5"/>
    <path d="M 151.553941 232.479545 
L 151.553941 191.623095 
" clip-path="url(#p2dc9211862)" style="fill: none; stroke: #008080; stroke-width: 1.5"/>
    <path d="M 157.411675 232.479545 
L 157.411675 190.171343 
" clip-path="url(#p2dc9211862)" style="fill: none; stroke: #008080; stroke-width: 1.5"/>
    <path d="M 163.269408 232.479545 
L 163.269408 185.193907 
" clip-path="url(#p2dc9211862)" style="fill: none; stroke: #008080; stroke-width: 1.5"/>
    <path d="M 169.127142 232.479545 
L 169.127142 181.875617 
" clip-path="url(#p2dc9211862)" style="fill: none; stroke: #008080; stroke-width: 1.5"/>
    <path d="M 174.984875 232.479545 
L 174.984875 180.216472 
" clip-path="url(#p2dc9211862)" style="fill: none; stroke: #008080; stroke-width: 1.5"/>
    <path d="M 180.842608 232.479545 
L 180.842608 176.898181 
" clip-path="url(#p2dc9211862)" style="fill: none; stroke: #008080; stroke-width: 1.5"/>
    <path d="M 186.700342 232.479545 
L 186.700342 173.579891 
" clip-path="url(#p2dc9211862)" style="fill: none; stroke: #008080; stroke-width: 1.5"/>
    <path d="M 192.558075 232.479545 
L 192.558075 172.128139 
" clip-path="url(#p2dc9211862)" style="fill: none; stroke: #008080; stroke-width: 1.5"/>
    <path d="M 198.415809 232.479545 
L 198.415809 167.150703 
" clip-path="url(#p2dc9211862)" style="fill: none; stroke: #008080; stroke-width: 1.5"/>
    <path d="M 204.273542 232.479545 
L 204.273542 165.698951 
" clip-path="url(#p2dc9211862)" style="fill: none; stroke: #008080; stroke-width: 1.5"/>
    <path d="M 210.131275 232.479545 
L 210.131275 162.173268 
" clip-path="url(#p2dc9211862)" style="fill: none; stroke: #008080; stroke-width: 1.5"/>
    <path d="M 215.989009 232.479545 
L 215.989009 160.721516 
" clip-path="url(#p2dc9211862)" style="fill: none; stroke: #008080; stroke-width: 1.5"/>
    <path d="M 221.846742 232.479545 
L 221.846742 157.195832 
" clip-path="url(#p2dc9211862)" style="fill: none; stroke: #008080; stroke-width: 1.5"/>
    <path d="M 227.704476 232.479545 
L 227.704476 155.951473 
" clip-path="url(#p2dc9211862)" style="fill: none; stroke: #008080; stroke-width: 1.5"/>
    <path d="M 233.562209 232.479545 
L 233.562209 150.766644 
" clip-path="url(#p2dc9211862)" style="fill: none; stroke: #008080; stroke-width: 1.5"/>
    <path d="M 239.419942 232.479545 
L 239.419942 145.789209 
" clip-path="url(#p2dc9211862)" style="fill: none; stroke: #008080; stroke-width: 1.5"/>
    <path d="M 245.277676 232.479545 
L 245.277676 142.470918 
" clip-path="url(#p2dc9211862)" style="fill: none; stroke: #008080; stroke-width: 1.5"/>
    <path d="M 251.135409 232.479545 
L 251.135409 141.019166 
" clip-path="url(#p2dc9211862)" style="fill: none; stroke: #008080; stroke-width: 1.5"/>
    <path d="M 256.993143 232.479545 
L 256.993143 139.360021 
" clip-path="url(#p2dc9211862)" style="fill: none; stroke: #008080; stroke-width: 1.5"/>
    <path d="M 262.850876 232.479545 
L 262.850876 137.700876 
" clip-path="url(#p2dc9211862)" style="fill: none; stroke: #008080; stroke-width: 1.5"/>
    <path d="M 268.70861 232.479545 
L 268.70861 135.834338 
" clip-path="url(#p2dc9211862)" style="fill: none; stroke: #008080; stroke-width: 1.5"/>
    <path d="M 274.566343 232.479545 
L 274.566343 134.382586 
" clip-path="url(#p2dc9211862)" style="fill: none; stroke: #008080; stroke-width: 1.5"/>
    <path d="M 280.424076 232.479545 
L 280.424076 132.72344 
" clip-path="url(#p2dc9211862)" style="fill: none; stroke: #008080; stroke-width: 1.5"/>
    <path d="M 286.28181 232.479545 
L 286.28181 131.271688 
" clip-path="url(#p2dc9211862)" style="fill: none; stroke: #008080; stroke-width: 1.5"/>
    <path d="M 292.139543 232.479545 
L 292.139543 129.40515 
" clip-path="url(#p2dc9211862)" style="fill: none; stroke: #008080; stroke-width: 1.5"/>
    <path d="M 297.997277 232.479545 
L 297.997277 127.953398 
" clip-path="url(#p2dc9211862)" style="fill: none; stroke: #008080; stroke-width: 1.5"/>
    <path d="M 303.85501 232.479545 
L 303.85501 122.975962 
" clip-path="url(#p2dc9211862)" style="fill: none; stroke: #008080; stroke-width: 1.5"/>
    <path d="M 309.712743 232.479545 
L 309.712743 119.657672 
" clip-path="url(#p2dc9211862)" style="fill: none; stroke: #008080; stroke-width: 1.5"/>
    <path d="M 315.570477 232.479545 
L 315.570477 117.998527 
" clip-path="url(#p2dc9211862)" style="fill: none; stroke: #008080; stroke-width: 1.5"/>
    <path d="M 321.42821 232.479545 
L 321.42821 114.680236 
" clip-path="url(#p2dc9211862)" style="fill: none; stroke: #008080; stroke-width: 1.5"/>
    <path d="M 327.285944 232.479545 
L 327.285944 109.702801 
" clip-path="url(#p2dc9211862)" style="fill: none; stroke: #008080; stroke-width: 1.5"/>
    <path d="M 333.143677 232.479545 
L 333.143677 108.251049 
" clip-path="url(#p2dc9211862)" style="fill: none; stroke: #008080; stroke-width: 1.5"/>
    <path d="M 339.001411 232.479545 
L 339.001411 103.273613 
" clip-path="url(#p2dc9211862)" style="fill: none; stroke: #008080; stroke-width: 1.5"/>
    <path d="M 344.859144 232.479545 
L 344.859144 100.162716 
" clip-path="url(#p2dc9211862)" style="fill: none; stroke: #008080; stroke-width: 1.5"/>
    <path d="M 350.716877 232.479545 
L 350.716877 98.296178 
" clip-path="url(#p2dc9211862)" style="fill: none; stroke: #008080; stroke-width: 1.5"/>
    <path d="M 356.574611 232.479545 
L 356.574611 96.844426 
" clip-path="url(#p2dc9211862)" style="fill: none; stroke: #008080; stroke-width: 1.5"/>
    <path d="M 362.432344 232.479545 
L 362.432344 93.318742 
" clip-path="url(#p2dc9211862)" style="fill: none; stroke: #008080; stroke-width: 1.5"/>
    <path d="M 368.290078 232.479545 
L 368.290078 90.207845 
" clip-path="url(#p2dc9211862)" style="fill: none; stroke: #008080; stroke-width: 1.5"/>
    <path d="M 374.147811 232.479545 
L 374.147811 86.682161 
" clip-path="url(#p2dc9211862)" style="fill: none; stroke: #008080; stroke-width: 1.5"/>
    <path d="M 380.005544 232.479545 
L 380.005544 85.437802 
" clip-path="url(#p2dc9211862)" style="fill: none; stroke: #008080; stroke-width: 1.5"/>
    <path d="M 385.863278 232.479545 
L 385.863278 83.571264 
" clip-path="url(#p2dc9211862)" style="fill: none; stroke: #008080; stroke-width: 1.5"/>
    <path d="M 391.721011 232.479545 
L 391.721011 82.119512 
" clip-path="url(#p2dc9211862)" style="fill: none; stroke: #008080; stroke-width: 1.5"/>
    <path d="M 397.578745 232.479545 
L 397.578745 80.460367 
" clip-path="url(#p2dc9211862)" style="fill: none; stroke: #008080; stroke-width: 1.5"/>
    <path d="M 403.436478 232.479545 
L 403.436478 73.823786 
" clip-path="url(#p2dc9211862)" style="fill: none; stroke: #008080; stroke-width: 1.5"/>
    <path d="M 409.294211 232.479545 
L 409.294211 72.164641 
" clip-path="url(#p2dc9211862)" style="fill: none; stroke: #008080; stroke-width: 1.5"/>
    <path d="M 415.151945 232.479545 
L 415.151945 69.053743 
" clip-path="url(#p2dc9211862)" style="fill: none; stroke: #008080; stroke-width: 1.5"/>
    <path d="M 421.009678 232.479545 
L 421.009678 64.076308 
" clip-path="url(#p2dc9211862)" style="fill: none; stroke: #008080; stroke-width: 1.5"/>
    <path d="M 426.867412 232.479545 
L 426.867412 62.417163 
" clip-path="url(#p2dc9211862)" style="fill: none; stroke: #008080; stroke-width: 1.5"/>
    <path d="M 432.725145 232.479545 
L 432.725145 60.758017 
" clip-path="url(#p2dc9211862)" style="fill: none; stroke: #008080; stroke-width: 1.5"/>
    <path d="M 438.582879 232.479545 
L 438.582879 59.098872 
" clip-path="url(#p2dc9211862)" style="fill: none; stroke: #008080; stroke-width: 1.5"/>
    <path d="M 444.440612 232.479545 
L 444.440612 57.439727 
" clip-path="url(#p2dc9211862)" style="fill: none; stroke: #008080; stroke-width: 1.5"/>
    <path d="M 450.298345 232.479545 
L 450.298345 54.121437 
" clip-path="url(#p2dc9211862)" style="fill: none; stroke: #008080; stroke-width: 1.5"/>
    <path d="M 456.156079 232.479545 
L 456.156079 50.595753 
" clip-path="url(#p2dc9211862)" style="fill: none; stroke: #008080; stroke-width: 1.5"/>
    <path d="M 462.013812 232.479545 
L 462.013812 44.581352 
" clip-path="url(#p2dc9211862)" style="fill: none; stroke: #008080; stroke-width: 1.5"/>
    <path d="M 467.871546 232.479545 
L 467.871546 41.470455 
" clip-path="url(#p2dc9211862)" style="fill: none; stroke: #008080; stroke-width: 1.5"/>
   </g>
   <g id="line2d_27">
    <defs>
     <path id="ma1a149f3cc" d="M 0 3 
C 0.795609 3 1.55874 2.683901 2.12132 2.12132 
C 2.683901 1.55874 3 0.795609 3 0 
C 3 -0.795609 2.683901 -1.55874 2.12132 -2.12132 
C 1.55874 -2.683901 0.795609 -3 0 -3 
C -0.795609 -3 -1.55874 -2.683901 -2.12132 -2.12132 
C -2.683901 -1.55874 -3 -0.795609 -3 0 
C -3 0.795609 -2.683901 1.55874 -2.12132 2.12132 
C -1.55874 2.683901 -0.795609 3 0 3 
z
" style="stroke: #008080"/>
    </defs>
    <g clip-path="url(#p2dc9211862)">
     <use xlink:href="#ma1a149f3cc" x="75.403407" y="228.746469" style="fill: #008080; stroke: #008080"/>
     <use xlink:href="#ma1a149f3cc" x="81.26114" y="225.842965" style="fill: #008080; stroke: #008080"/>
     <use xlink:href="#ma1a149f3cc" x="87.118874" y="219.413777" style="fill: #008080; stroke: #008080"/>
     <use xlink:href="#ma1a149f3cc" x="92.976607" y="216.510273" style="fill: #008080; stroke: #008080"/>
     <use xlink:href="#ma1a149f3cc" x="98.834341" y="212.984589" style="fill: #008080; stroke: #008080"/>
     <use xlink:href="#ma1a149f3cc" x="104.692074" y="211.325444" style="fill: #008080; stroke: #008080"/>
     <use xlink:href="#ma1a149f3cc" x="110.549807" y="209.666299" style="fill: #008080; stroke: #008080"/>
     <use xlink:href="#ma1a149f3cc" x="116.407541" y="208.007154" style="fill: #008080; stroke: #008080"/>
     <use xlink:href="#ma1a149f3cc" x="122.265274" y="206.555402" style="fill: #008080; stroke: #008080"/>
     <use xlink:href="#ma1a149f3cc" x="128.123008" y="203.029718" style="fill: #008080; stroke: #008080"/>
     <use xlink:href="#ma1a149f3cc" x="133.980741" y="201.785359" style="fill: #008080; stroke: #008080"/>
     <use xlink:href="#ma1a149f3cc" x="139.838474" y="196.393137" style="fill: #008080; stroke: #008080"/>
     <use xlink:href="#ma1a149f3cc" x="145.696208" y="195.148779" style="fill: #008080; stroke: #008080"/>
     <use xlink:href="#ma1a149f3cc" x="151.553941" y="191.623095" style="fill: #008080; stroke: #008080"/>
     <use xlink:href="#ma1a149f3cc" x="157.411675" y="190.171343" style="fill: #008080; stroke: #008080"/>
     <use xlink:href="#ma1a149f3cc" x="163.269408" y="185.193907" style="fill: #008080; stroke: #008080"/>
     <use xlink:href="#ma1a149f3cc" x="169.127142" y="181.875617" style="fill: #008080; stroke: #008080"/>
     <use xlink:href="#ma1a149f3cc" x="174.984875" y="180.216472" style="fill: #008080; stroke: #008080"/>
     <use xlink:href="#ma1a149f3cc" x="180.842608" y="176.898181" style="fill: #008080; stroke: #008080"/>
     <use xlink:href="#ma1a149f3cc" x="186.700342" y="173.579891" style="fill: #008080; stroke: #008080"/>
     <use xlink:href="#ma1a149f3cc" x="192.558075" y="172.128139" style="fill: #008080; stroke: #008080"/>
     <use xlink:href="#ma1a149f3cc" x="198.415809" y="167.150703" style="fill: #008080; stroke: #008080"/>
     <use xlink:href="#ma1a149f3cc" x="204.273542" y="165.698951" style="fill: #008080; stroke: #008080"/>
     <use xlink:href="#ma1a149f3cc" x="210.131275" y="162.173268" style="fill: #008080; stroke: #008080"/>
     <use xlink:href="#ma1a149f3cc" x="215.989009" y="160.721516" style="fill: #008080; stroke: #008080"/>
     <use xlink:href="#ma1a149f3cc" x="221.846742" y="157.195832" style="fill: #008080; stroke: #008080"/>
     <use xlink:href="#ma1a149f3cc" x="227.704476" y="155.951473" style="fill: #008080; stroke: #008080"/>
     <use xlink:href="#ma1a149f3cc" x="233.562209" y="150.766644" style="fill: #008080; stroke: #008080"/>
     <use xlink:href="#ma1a149f3cc" x="239.419942" y="145.789209" style="fill: #008080; stroke: #008080"/>
     <use xlink:href="#ma1a149f3cc" x="245.277676" y="142.470918" style="fill: #008080; stroke: #008080"/>
     <use xlink:href="#ma1a149f3cc" x="251.135409" y="141.019166" style="fill: #008080; stroke: #008080"/>
     <use xlink:href="#ma1a149f3cc" x="256.993143" y="139.360021" style="fill: #008080; stroke: #008080"/>
     <use xlink:href="#ma1a149f3cc" x="262.850876" y="137.700876" style="fill: #008080; stroke: #008080"/>
     <use xlink:href="#ma1a149f3cc" x="268.70861" y="135.834338" style="fill: #008080; stroke: #008080"/>
     <use xlink:href="#ma1a149f3cc" x="274.566343" y="134.382586" style="fill: #008080; stroke: #008080"/>
     <use xlink:href="#ma1a149f3cc" x="280.424076" y="132.72344" style="fill: #008080; stroke: #008080"/>
     <use xlink:href="#ma1a149f3cc" x="286.28181" y="131.271688" style="fill: #008080; stroke: #008080"/>
     <use xlink:href="#ma1a149f3cc" x="292.139543" y="129.40515" style="fill: #008080; stroke: #008080"/>
     <use xlink:href="#ma1a149f3cc" x="297.997277" y="127.953398" style="fill: #008080; stroke: #008080"/>
     <use xlink:href="#ma1a149f3cc" x="303.85501" y="122.975962" style="fill: #008080; stroke: #008080"/>
     <use xlink:href="#ma1a149f3cc" x="309.712743" y="119.657672" style="fill: #008080; stroke: #008080"/>
     <use xlink:href="#ma1a149f3cc" x="315.570477" y="117.998527" style="fill: #008080; stroke: #008080"/>
     <use xlink:href="#ma1a149f3cc" x="321.42821" y="114.680236" style="fill: #008080; stroke: #008080"/>
     <use xlink:href="#ma1a149f3cc" x="327.285944" y="109.702801" style="fill: #008080; stroke: #008080"/>
     <use xlink:href="#ma1a149f3cc" x="333.143677" y="108.251049" style="fill: #008080; stroke: #008080"/>
     <use xlink:href="#ma1a149f3cc" x="339.001411" y="103.273613" style="fill: #008080; stroke: #008080"/>
     <use xlink:href="#ma1a149f3cc" x="344.859144" y="100.162716" style="fill: #008080; stroke: #008080"/>
     <use xlink:href="#ma1a149f3cc" x="350.716877" y="98.296178" style="fill: #008080; stroke: #008080"/>
     <use xlink:href="#ma1a149f3cc" x="356.574611" y="96.844426" style="fill: #008080; stroke: #008080"/>
     <use xlink:href="#ma1a149f3cc" x="362.432344" y="93.318742" style="fill: #008080; stroke: #008080"/>
     <use xlink:href="#ma1a149f3cc" x="368.290078" y="90.207845" style="fill: #008080; stroke: #008080"/>
     <use xlink:href="#ma1a149f3cc" x="374.147811" y="86.682161" style="fill: #008080; stroke: #008080"/>
     <use xlink:href="#ma1a149f3cc" x="380.005544" y="85.437802" style="fill: #008080; stroke: #008080"/>
     <use xlink:href="#ma1a149f3cc" x="385.863278" y="83.571264" style="fill: #008080; stroke: #008080"/>
     <use xlink:href="#ma1a149f3cc" x="391.721011" y="82.119512" style="fill: #008080; stroke: #008080"/>
     <use xlink:href="#ma1a149f3cc" x="397.578745" y="80.460367" style="fill: #008080; stroke: #008080"/>
     <use xlink:href="#ma1a149f3cc" x="403.436478" y="73.823786" style="fill: #008080; stroke: #008080"/>
     <use xlink:href="#ma1a149f3cc" x="409.294211" y="72.164641" style="fill: #008080; stroke: #008080"/>
     <use xlink:href="#ma1a149f3cc" x="415.151945" y="69.053743" style="fill: #008080; stroke: #008080"/>
     <use xlink:href="#ma1a149f3cc" x="421.009678" y="64.076308" style="fill: #008080; stroke: #008080"/>
     <use xlink:href="#ma1a149f3cc" x="426.867412" y="62.417163" style="fill: #008080; stroke: #008080"/>
     <use xlink:href="#ma1a149f3cc" x="432.725145" y="60.758017" style="fill: #008080; stroke: #008080"/>
     <use xlink:href="#ma1a149f3cc" x="438.582879" y="59.098872" style="fill: #008080; stroke: #008080"/>
     <use xlink:href="#ma1a149f3cc" x="444.440612" y="57.439727" style="fill: #008080; stroke: #008080"/>
     <use xlink:href="#ma1a149f3cc" x="450.298345" y="54.121437" style="fill: #008080; stroke: #008080"/>
     <use xlink:href="#ma1a149f3cc" x="456.156079" y="50.595753" style="fill: #008080; stroke: #008080"/>
     <use xlink:href="#ma1a149f3cc" x="462.013812" y="44.581352" style="fill: #008080; stroke: #008080"/>
     <use xlink:href="#ma1a149f3cc" x="467.871546" y="41.470455" style="fill: #008080; stroke: #008080"/>
    </g>
   </g>
   <g id="line2d_28">
    <path d="M 75.403407 232.479545 
L 467.871546 232.479545 
" clip-path="url(#p2dc9211862)" style="fill: none; stroke: #000000; stroke-width: 1.5; stroke-linecap: square"/>
   </g>
   <g id="patch_3">
    <path d="M 55.78 242.03 
L 55.78 31.92 
" style="fill: none; stroke: #000000; stroke-width: 0.8; stroke-linejoin: miter; stroke-linecap: square"/>
   </g>
   <g id="patch_4">
    <path d="M 487.494953 242.03 
L 487.494953 31.92 
" style="fill: none; stroke: #000000; stroke-width: 0.8; stroke-linejoin: miter; stroke-linecap: square"/>
   </g>
   <g id="patch_5">
    <path d="M 55.78 242.03 
L 487.494953 242.03 
" style="fill: none; stroke: #000000; stroke-width: 0.8; stroke-linejoin: miter; stroke-linecap: square"/>
   </g>
   <g id="patch_6">
    <path d="M 55.78 31.92 
L 487.494953 31.92 
" style="fill: none; stroke: #000000; stroke-width: 0.8; stroke-linejoin: miter; stroke-linecap: square"/>
   </g>
   <g id="text_16">
    <!-- $\ell[n]$ (Edge Location) -->
    <g transform="translate(185.151076 25.92) scale(0.1728 -0.1728)">
     <defs>
      <path id="DejaVuSans-Oblique-2113" d="M 950 838 
Q 1078 213 1350 213 
Q 1531 213 1766 572 
L 2181 572 
Q 1994 253 1775 88 
Q 1538 -91 1319 -91 
Q 831 -91 634 344 
L 400 0 
L -88 0 
Q 250 459 500 888 
Q 469 1131 469 1397 
Q 469 1872 566 2347 
Q 931 4131 1256 4497 
Q 1481 4750 1866 4750 
Q 2256 4750 2256 4209 
Q 2253 3966 2197 3675 
Q 1972 2484 950 838 
z
M 947 1656 
Q 1531 2744 1709 3613 
Q 1803 4072 1803 4191 
Q 1803 4406 1725 4406 
Q 1384 4134 1081 2516 
Q 997 2063 947 1656 
z
" transform="scale(0.015625)"/>
      <path id="DejaVuSans-5b" d="M 550 4863 
L 1875 4863 
L 1875 4416 
L 1125 4416 
L 1125 -397 
L 1875 -397 
L 1875 -844 
L 550 -844 
L 550 4863 
z
" transform="scale(0.015625)"/>
      <path id="DejaVuSans-Oblique-6e" d="M 3566 2113 
L 3156 0 
L 2578 0 
L 2988 2091 
Q 3016 2238 3031 2350 
Q 3047 2463 3047 2528 
Q 3047 2791 2881 2937 
Q 2716 3084 2419 3084 
Q 1956 3084 1622 2776 
Q 1288 2469 1184 1941 
L 800 0 
L 225 0 
L 903 3500 
L 1478 3500 
L 1363 2950 
Q 1603 3253 1940 3418 
Q 2278 3584 2650 3584 
Q 3113 3584 3367 3334 
Q 3622 3084 3622 2631 
Q 3622 2519 3608 2391 
Q 3594 2263 3566 2113 
z
" transform="scale(0.015625)"/>
      <path id="DejaVuSans-5d" d="M 1947 4863 
L 1947 -844 
L 622 -844 
L 622 -397 
L 1369 -397 
L 1369 4416 
L 622 4416 
L 622 4863 
L 1947 4863 
z
" transform="scale(0.015625)"/>
      <path id="DejaVuSans-20" transform="scale(0.015625)"/>
      <path id="DejaVuSans-28" d="M 1984 4856 
Q 1566 4138 1362 3434 
Q 1159 2731 1159 2009 
Q 1159 1288 1364 580 
Q 1569 -128 1984 -844 
L 1484 -844 
Q 1016 -109 783 600 
Q 550 1309 550 2009 
Q 550 2706 781 3412 
Q 1013 4119 1484 4856 
L 1984 4856 
z
" transform="scale(0.015625)"/>
      <path id="DejaVuSans-4c" d="M 628 4666 
L 1259 4666 
L 1259 531 
L 3531 531 
L 3531 0 
L 628 0 
L 628 4666 
z
" transform="scale(0.015625)"/>
      <path id="DejaVuSans-6f" d="M 1959 3097 
Q 1497 3097 1228 2736 
Q 959 2375 959 1747 
Q 959 1119 1226 758 
Q 1494 397 1959 397 
Q 2419 397 2687 759 
Q 2956 1122 2956 1747 
Q 2956 2369 2687 2733 
Q 2419 3097 1959 3097 
z
M 1959 3584 
Q 2709 3584 3137 3096 
Q 3566 2609 3566 1747 
Q 3566 888 3137 398 
Q 2709 -91 1959 -91 
Q 1206 -91 779 398 
Q 353 888 353 1747 
Q 353 2609 779 3096 
Q 1206 3584 1959 3584 
z
" transform="scale(0.015625)"/>
      <path id="DejaVuSans-63" d="M 3122 3366 
L 3122 2828 
Q 2878 2963 2633 3030 
Q 2388 3097 2138 3097 
Q 1578 3097 1268 2742 
Q 959 2388 959 1747 
Q 959 1106 1268 751 
Q 1578 397 2138 397 
Q 2388 397 2633 464 
Q 2878 531 3122 666 
L 3122 134 
Q 2881 22 2623 -34 
Q 2366 -91 2075 -91 
Q 1284 -91 818 406 
Q 353 903 353 1747 
Q 353 2603 823 3093 
Q 1294 3584 2113 3584 
Q 2378 3584 2631 3529 
Q 2884 3475 3122 3366 
z
" transform="scale(0.015625)"/>
      <path id="DejaVuSans-61" d="M 2194 1759 
Q 1497 1759 1228 1600 
Q 959 1441 959 1056 
Q 959 750 1161 570 
Q 1363 391 1709 391 
Q 2188 391 2477 730 
Q 2766 1069 2766 1631 
L 2766 1759 
L 2194 1759 
z
M 3341 1997 
L 3341 0 
L 2766 0 
L 2766 531 
Q 2569 213 2275 61 
Q 1981 -91 1556 -91 
Q 1019 -91 701 211 
Q 384 513 384 1019 
Q 384 1609 779 1909 
Q 1175 2209 1959 2209 
L 2766 2209 
L 2766 2266 
Q 2766 2663 2505 2880 
Q 2244 3097 1772 3097 
Q 1472 3097 1187 3025 
Q 903 2953 641 2809 
L 641 3341 
Q 956 3463 1253 3523 
Q 1550 3584 1831 3584 
Q 2591 3584 2966 3190 
Q 3341 2797 3341 1997 
z
" transform="scale(0.015625)"/>
      <path id="DejaVuSans-74" d="M 1172 4494 
L 1172 3500 
L 2356 3500 
L 2356 3053 
L 1172 3053 
L 1172 1153 
Q 1172 725 1289 603 
Q 1406 481 1766 481 
L 2356 481 
L 2356 0 
L 1766 0 
Q 1100 0 847 248 
Q 594 497 594 1153 
L 594 3053 
L 172 3053 
L 172 3500 
L 594 3500 
L 594 4494 
L 1172 4494 
z
" transform="scale(0.015625)"/>
      <path id="DejaVuSans-6e" d="M 3513 2113 
L 3513 0 
L 2938 0 
L 2938 2094 
Q 2938 2591 2744 2837 
Q 2550 3084 2163 3084 
Q 1697 3084 1428 2787 
Q 1159 2491 1159 1978 
L 1159 0 
L 581 0 
L 581 3500 
L 1159 3500 
L 1159 2956 
Q 1366 3272 1645 3428 
Q 1925 3584 2291 3584 
Q 2894 3584 3203 3211 
Q 3513 2838 3513 2113 
z
" transform="scale(0.015625)"/>
      <path id="DejaVuSans-29" d="M 513 4856 
L 1013 4856 
Q 1481 4119 1714 3412 
Q 1947 2706 1947 2009 
Q 1947 1309 1714 600 
Q 1481 -109 1013 -844 
L 513 -844 
Q 928 -128 1133 580 
Q 1338 1288 1338 2009 
Q 1338 2731 1133 3434 
Q 928 4138 513 4856 
z
" transform="scale(0.015625)"/>
     </defs>
     <use xlink:href="#DejaVuSans-Oblique-2113" transform="translate(0 0.015625)"/>
     <use xlink:href="#DejaVuSans-5b" transform="translate(41.308594 0.015625)"/>
     <use xlink:href="#DejaVuSans-Oblique-6e" transform="translate(80.322266 0.015625)"/>
     <use xlink:href="#DejaVuSans-5d" transform="translate(143.701172 0.015625)"/>
     <use xlink:href="#DejaVuSans-20" transform="translate(182.714844 0.015625)"/>
     <use xlink:href="#DejaVuSans-28" transform="translate(214.501953 0.015625)"/>
     <use xlink:href="#DejaVuSans-45" transform="translate(253.515625 0.015625)"/>
     <use xlink:href="#DejaVuSans-64" transform="translate(316.699219 0.015625)"/>
     <use xlink:href="#DejaVuSans-67" transform="translate(380.175781 0.015625)"/>
     <use xlink:href="#DejaVuSans-65" transform="translate(443.652344 0.015625)"/>
     <use xlink:href="#DejaVuSans-20" transform="translate(505.175781 0.015625)"/>
     <use xlink:href="#DejaVuSans-4c" transform="translate(536.962891 0.015625)"/>
     <use xlink:href="#DejaVuSans-6f" transform="translate(592.675781 0.015625)"/>
     <use xlink:href="#DejaVuSans-63" transform="translate(653.857422 0.015625)"/>
     <use xlink:href="#DejaVuSans-61" transform="translate(708.837891 0.015625)"/>
     <use xlink:href="#DejaVuSans-74" transform="translate(770.117188 0.015625)"/>
     <use xlink:href="#DejaVuSans-69" transform="translate(809.326172 0.015625)"/>
     <use xlink:href="#DejaVuSans-6f" transform="translate(837.109375 0.015625)"/>
     <use xlink:href="#DejaVuSans-6e" transform="translate(898.291016 0.015625)"/>
     <use xlink:href="#DejaVuSans-29" transform="translate(961.669922 0.015625)"/>
    </g>
   </g>
  </g>
 </g>
 <defs>
  <clipPath id="p2dc9211862">
   <rect x="55.78" y="31.92" width="431.714953" height="210.11"/>
  </clipPath>
 </defs>
</svg>
